<?xml version="1.0" encoding="utf-8"?>
<!-- Generator: Adobe Illustrator 26.0.2, SVG Export Plug-In . SVG Version: 6.00 Build 0)  -->
<svg version="1.1" id="Layer_1" xmlns="http://www.w3.org/2000/svg" xmlns:xlink="http://www.w3.org/1999/xlink" x="0px" y="0px"
	 viewBox="0 0 520 520" style="enable-background:new 0 0 520 520;" xml:space="preserve">
<style type="text/css">
	.st0{fill:#5ABA4F;}
	.st1{fill:#C9E5C0;}
</style>
<g>
	<path class="st0" d="M151.2,174.4C85.1,151.3,53.1,93.3,67.7,20.1c22.5,0,45.6,0,68.5,0c3.6-7.7,6.2-13.3,9.5-20.1
		c74.5,0,149.1,0,225.6,0c2.6,5,5.7,11.2,10,19.5c22.8,0,46.7,0,69.9,0c17.6,61.7-17.7,131.9-74.7,152c-7.6,2.7-16.1,4.4-22,9.2
		c-4.8,3.9-6.2,11.9-9.2,18.1c3.6,2.6,7.2,5.2,10.8,7.8c2.3-7.6,4.6-15.3,6.9-22.9c3.3,1.5,6.6,3,9.9,4.5c0.5,7.4,4.2,18,0.7,21.6
		c-7,7.4-19,16.3-27.1,14.8c-12.8-2.3-24.1-12.7-40.8-22.4c-13.6,7.2-21.2,25.5-19.7,47.9c2.2,34.1,23,51.5,55.7,55.9
		c3.2,8.8,5.9,16.2,9.1,24.8c6.2,1.2,13.1,2.5,19.4,3.8c1.3,2.1,2.8,3.5,2.8,4.9c0.1,41,0.1,82.1,0.1,123.5
		c8.3,4.3,15.2,7.8,22.5,11.6c0,14.6,0,28.9,0,45.5c-90.4,0-179.9,0-271.1,0c0-15.3,0-30.3,0-46.6c4.8-2.2,10.5-4.7,18.3-8.3
		c0-42.6,0-85.9,0-129.7c9-1.9,15.8-3.4,22.9-4.9c3.1-7.7,6-15.1,9.4-23.6c30.6-5.7,54.1-20.2,59.2-53.7
		c3.4-22.4-8.9-37.7-24.3-51.7c-23.8,26.1-42.2,31.7-57.7,17.4c-9.9-9.2-18.1-20.1-1.1-31c2.3,0.7,4.6,1.4,6.9,2.1
		c4,3.8,8,7.7,12,11.5c0.6-4.9,1.2-9.8,1.7-14.8c-1.6-1.6-3.2-3.1-4.9-4.7C161.9,179.6,156.6,177,151.2,174.4z M171.5,152.4
		c2.7-0.2,5.5-0.4,12.1-0.9c-5.5-4.6-7.6-6.4-9.8-8.2c-10.4-31.8-20.7-63.6-31.4-96.5c-9.1,0-17.1-0.2-25,0
		c-7.7,0.2-15.4,1-22.6,1.5c-5.6,52.3,15.1,84.2,61.1,97.9C161.2,147.8,166.3,150.3,171.5,152.4z M323.1,364c-43.9,0-85.2,0-126.7,0
		c0,31.7,0,61.6,0,91.2c43.3,0,84.5,0,126.7,0C323.1,424.4,323.1,395.7,323.1,364z M374.5,47.6C363,84,352.2,117.8,341.1,152.9
		c65.7-16,92.4-50,83.2-105.3C407.4,47.6,390.4,47.6,374.5,47.6z"/>
	<path class="st1" d="M170.4,201.5c0.6-4.9,1.2-9.8,1.7-14.8C171.5,191.7,170.9,196.6,170.4,201.5z"/>
</g>
</svg>
