<?xml version="1.0" encoding="utf-8"?>
<!-- Generator: Adobe Illustrator 26.0.2, SVG Export Plug-In . SVG Version: 6.00 Build 0)  -->
<svg version="1.1" id="Layer_1" xmlns="http://www.w3.org/2000/svg" xmlns:xlink="http://www.w3.org/1999/xlink" x="0px" y="0px"
	 viewBox="0 0 520 520" style="enable-background:new 0 0 520 520;" xml:space="preserve">
<style type="text/css">
	.st0{fill:#5FBC53;}
	.st1{fill:#5ABA4E;}
	.st2{fill:#5CBB50;}
	.st3{fill:#5BBB50;}
	.st4{fill:#62BD56;}
	.st5{fill:#60BC54;}
	.st6{fill:#76C468;}
	.st7{fill:#7AC56D;}
	.st8{fill:#DEEFD9;}
	.st9{fill:#C8E5BF;}
	.st10{fill:#CAE5C1;}
</style>
<path class="st0" d="M28.3,266.9C19,252.8,10.1,239,0,223.7c16.5-12.3,31.2-25.7,48.1-35.2c24-13.5,35.5-31.3,31.7-59.2
	c-1.5-10.8,0.6-22.2,1.2-35c21.6,0,41,0,61.8,0c2.8,4.7,6.1,10.3,10.5,17.9c23.9-16.1,47.4-31.9,72.3-48.6
	c25.8,18.6,50.3,36.3,77,55.6c-21.6,9.8-38.5,17.5-56.9,25.9c-6.1-2.8-13.6-6.3-23.1-10.7c-48.7,34.7-97.9,69.7-147.8,105.1
	c0,54.9,0,109.3,0,166.3c47.5,0,94.2,0,142.3,0c1.5,7.7,2.5,13.1,3.8,20.2c-60.1,0-117.9,0-177.9,0c18.9-54.6,6.4-108.4,10.4-163.8
	C43.1,264.2,36.1,265.5,28.3,266.9z"/>
<path class="st1" d="M349.6,314.3c0,24.6,0,49.2,0,75.8c-8,0-13.5,0-19,0c-14.4-12.4-28.8-24.8-41.6-35.9
	c-4.8,16.9,9.3,35.7,41.8,50c7.6,1.7,15.1,3.4,22.6,5.1c3.1,1.6,6.1,3.2,9.1,4.7l0.1,0.1c1.7,3,3.5,6,5.1,9c0,4.7,0,9.4,0,14.1
	c-1.8,3-3.6,5.9-5.5,8.9c-9.7,2.5-19.5,5-29.3,7.5c-5.5-1.7-11-3.5-16.5-5.2c-2.9-0.6-5.9-1.3-8.8-2c-3.1-1.3-6.1-2.7-9.2-4
	c-54.5-26.2-70.8-74.8-74.5-129.8c-1.4-20.9,13-34.3,28.7-45.6c3.1-1.2,6.2-2.3,9.3-3.5c24.4,0,48.7,0.1,73.1,0.1
	c3.1,1.5,6.1,2.9,9.2,4.4c0.7,1,1.7,1.5,2.9,1.4c4.6,5,9.2,10,13.8,15c-2,4.4-4,8.9-5.9,13.3C353.3,303.2,351.5,308.7,349.6,314.3z"
	/>
<path class="st2" d="M382.4,283.2c1.1,0.2,2.1-0.1,2.8-1c3-1.6,6-3.2,9.1-4.8c2.9-0.6,5.9-1.2,8.8-1.7c15.6,0.5,31.2,1.1,46.8,1.6
	c2.2,11,4.5,22.1,6.7,33.1c4.6,4.9,9.1,9.7,13.7,14.6c5.1,2.5,10.1,4.9,15.2,7.3c4.6,1.5,9.2,2.9,13.8,4.3
	c-0.5,47.7-21.2,83.3-63.7,105.7c-3.1,1.4-6.1,2.9-9.2,4.3c-2.9,0.8-5.9,1.5-8.8,2.4c-4,1.5-8,3.1-12,4.6c-6.3,0.3-12.7,0.6-19,0.9
	c-2.4-4.3-4.7-8.5-7.1-12.8c1.8-9.6,3.6-19.2,5.4-28.8c3.1-1.1,6.2-2.2,9.4-3.4c4.6-1.4,9.2-2.8,13.8-4.2
	c18.1-10.2,34.7-21.6,36.6-44.1c-1.7-1.7-3.5-3.4-5.2-5.1c-12,12.3-24,24.6-35.9,37c-11.6,2.2-23.2,4.4-34.8,6.7
	c-2.1-2.7-4.2-5.4-6.3-8.1c0-24.3,0-48.6,0-72.9c1-4.5,1.9-8.9,2.8-13.4c1.2-3.6,2.5-7.2,3.7-10.9
	C373.3,290.5,377.9,286.9,382.4,283.2z"/>
<path class="st1" d="M314.9,248.2c-7.8,0-15.7,0.1-23.5,0.1c-3.9-1.6-7.8-3.2-11.8-4.9c-9.4-9.7-18.7-19.3-28.1-29
	c-1.4-4.7-2.7-9.4-4.1-14.1c0.1-4.6,0.2-9.3,0.3-13.9c1.4-4.7,2.8-9.3,4.2-14c13.3-10.4,25.1-25.4,40.2-30.3
	c25.8-8.3,51,7.4,60.4,31.6c10.4,26.9,0.6,53.3-25.9,69.6C322.7,244.9,318.8,246.5,314.9,248.2z"/>
<path class="st3" d="M441.7,262c-12-1.4-24-2.7-36-4.1c-3.6-2.9-7.3-5.7-10.9-8.6c-5-7.2-9.9-14.4-14.9-21.7
	c-1.2-3.1-2.5-6.2-3.7-9.3c-0.1-4.6-0.3-9.1-0.4-13.7c0.9-3.1,1.8-6.3,2.7-9.5c23.9-44,64.1-49.7,93.7-13.4c1.6,3,3.2,6,4.9,9
	c0.8,4.5,1.6,8.9,2.5,13.4c-0.2,4.9-0.3,9.7-0.5,14.6c-0.5,3-1.1,6-1.6,9c-1.6,3-3.2,6-4.8,9c-6.3,6.5-12.5,12.9-18.8,19.4
	C449.8,258.1,445.7,260.1,441.7,262z"/>
<path class="st4" d="M122.7,238.5c22.3,0,42.4,0,64.8,0c0,21.3,0,41.9,0,64.9c-20.5,0-41.7,0-64.8,0
	C122.7,282.5,122.7,261.9,122.7,238.5z"/>
<path class="st5" d="M469.2,309.2c0-15,0-29.9,0-43.5c24.9-6.3,31.1-3.2,50.8,21.6c-0.5,27.8-8.1,33.2-41.9,29.7
	C475.1,314.4,472.2,311.8,469.2,309.2z"/>
<path class="st6" d="M289.5,456.4c-20.5,0-34,0-49,0c0-13.7,0-25.5,0-40.3C256.2,429,270.4,440.7,289.5,456.4z"/>
<path class="st7" d="M444.8,456.3c16.5-14.8,28-25.1,42.7-38.3c0,14.5,0,25.3,0,38.3C475.1,456.3,463.2,456.3,444.8,456.3z"/>
<path class="st8" d="M361,284.4c-4.6-5-9.2-10-13.8-15C351.8,274.4,356.4,279.4,361,284.4z"/>
<path class="st9" d="M252,172.3c-1.4,4.7-2.8,9.3-4.2,14C249.2,181.7,250.6,177,252,172.3z"/>
<path class="st9" d="M247.4,200.3c1.4,4.7,2.7,9.4,4.1,14.1C250.2,209.7,248.8,205,247.4,200.3z"/>
<path class="st8" d="M479,218.8c0.2-4.9,0.3-9.7,0.5-14.6C479.3,209.1,479.2,214,479,218.8z"/>
<path class="st10" d="M499.2,336.6c-4.6-1.5-9.2-2.9-13.8-4.3C490,333.8,494.6,335.2,499.2,336.6z"/>
<path class="st8" d="M316.5,448.3c5.5,1.8,11,3.5,16.5,5.2C327.5,451.8,322,450.1,316.5,448.3z"/>
<path class="st8" d="M382.4,283.2c-4.5,3.7-9.1,7.4-13.6,11.1C373.3,290.6,377.9,286.9,382.4,283.2z"/>
<path class="st8" d="M379.5,441.7c2.4,4.3,4.7,8.5,7.1,12.8C384.2,450.2,381.8,445.9,379.5,441.7z"/>
<path class="st8" d="M376.2,218.3c1.2,3.1,2.5,6.2,3.7,9.3C378.7,224.5,377.5,221.4,376.2,218.3z"/>
<path class="st8" d="M472.6,236.8c1.6-3,3.2-6,4.8-9C475.8,230.8,474.2,233.8,472.6,236.8z"/>
<path class="st8" d="M262.1,263.4c-3.1,1.2-6.2,2.3-9.3,3.5C255.9,265.8,259,264.6,262.1,263.4z"/>
<path class="st9" d="M279.6,243.4c3.9,1.6,7.8,3.3,11.8,4.9C287.5,246.7,283.5,245,279.6,243.4z"/>
<path class="st9" d="M314.9,248.2c3.9-1.6,7.9-3.3,11.8-4.9C322.7,244.9,318.8,246.5,314.9,248.2z"/>
<path class="st8" d="M394.8,249.3c3.6,2.9,7.3,5.7,10.9,8.6C402.1,255.1,398.4,252.2,394.8,249.3z"/>
<path class="st8" d="M441.7,262c4-2,8-3.9,12.1-5.9C449.8,258.1,445.7,260.1,441.7,262z"/>
<path class="st8" d="M362.5,414c-3.1-1.6-6.1-3.2-9.1-4.7C356.4,410.9,359.5,412.5,362.5,414z"/>
<path class="st8" d="M394.2,409.5c-3.1,1.1-6.2,2.2-9.4,3.4C388,411.7,391.1,410.6,394.2,409.5z"/>
<path class="st8" d="M344.3,267.9c-3.1-1.5-6.1-2.9-9.2-4.4C338.2,265,341.3,266.5,344.3,267.9z"/>
<path class="st8" d="M367.8,423.2c-1.7-3-3.5-6-5.1-9C364.3,417.1,366,420.1,367.8,423.2z"/>
<path class="st8" d="M477,190.8c-1.6-3-3.2-6-4.9-9C473.8,184.8,475.4,187.8,477,190.8z"/>
<path class="st8" d="M362.3,446.1c1.8-3,3.6-5.9,5.5-8.9C365.9,440.2,364.1,443.1,362.3,446.1z"/>
<path class="st8" d="M298.4,442.4c3.1,1.3,6.1,2.7,9.2,4C304.6,445.1,301.5,443.7,298.4,442.4z"/>
<path class="st8" d="M394.2,277.4c-3,1.6-6,3.2-9.1,4.8C388.2,280.6,391.2,279,394.2,277.4z"/>
<path class="st8" d="M426.3,446.6c3.1-1.4,6.1-2.9,9.2-4.3C432.4,443.7,429.3,445.2,426.3,446.6z"/>
<path class="st8" d="M378.5,195.2c-0.9,3.1-1.8,6.3-2.7,9.5C376.7,201.5,377.7,198.3,378.5,195.2z"/>
<path class="st8" d="M405.6,453.6c4-1.5,8-3.1,12-4.6C413.5,450.5,409.5,452,405.6,453.6z"/>
</svg>
