<?xml version="1.0" encoding="utf-8"?>
<!-- Generator: Adobe Illustrator 26.0.2, SVG Export Plug-In . SVG Version: 6.00 Build 0)  -->
<svg version="1.1" id="Layer_1" xmlns="http://www.w3.org/2000/svg" xmlns:xlink="http://www.w3.org/1999/xlink" x="0px" y="0px"
	 viewBox="0 0 520 520" style="enable-background:new 0 0 520 520;" xml:space="preserve">
<style type="text/css">
	.st0{fill:#61BD55;}
	.st1{fill:#61BC55;}
	.st2{fill:#63BD57;}
	.st3{fill:#5DBB51;}
	.st4{fill:#CEE7C5;}
	.st5{fill:#6ABF5D;}
	.st6{fill:#94CF86;}
	.st7{fill:#8DCC7E;}
	.st8{fill:#7BC770;}
	.st9{fill:#7EC873;}
	.st10{fill:#8CCC7E;}
	.st11{fill:#8ECD80;}
	.st12{fill:#88CB7B;}
	.st13{fill:#8FCD83;}
	.st14{fill:#85C977;}
	.st15{fill:#82C874;}
	.st16{fill:#88CA7A;}
	.st17{fill:#7EC670;}
</style>
<path class="st0" d="M225.5,421.9c-71.6,0-147.2,0-225.5,0C0,290.6,0,163.8,0,34.1c29.1,0,55.4,0,81.6,0c-0.6-1.7-1.3-3.5-1.9-5.2
	c10.6-8.6,21.2-17.3,33.5-27.3c8.3,14.3,12.6,21.8,17.3,29.8c69.2,0,138.3,0,207.9,0c3.6-7.1,7.1-13.9,11.6-22.6
	c7.3-0.6,14.9-1.2,22.6-1.8c5.3,9,9.6,16.4,15.4,26.4c25.1,0,51.4,0,80.4,0c1.6,12.5,4,22.6,4.1,32.8c0.4,56.8-0.7,113.6,0.9,170.3
	c0.3,12.8,6.1,27.7,14.3,37.5c49.7,59.2,41.5,154.5-19.4,208.7c-57.3,51.1-153.4,47-204.5-9.4C250.9,459,240.6,442.4,225.5,421.9z
	 M245.4,270.6c-19-1-38.1-1.9-57-2.9c0-22.2,0-40.2,0-58.4c30.4,0,58.3,0,87.1,0c1.6,12.8,3,23.7,4.7,37.5
	c9.9-5.1,17.4-8.9,24.1-12.3c3.2-9.8,5.8-17.9,8.5-26.3c27.9,0,54.3,0,80.8,0c-0.6,1.2-1.1,2.5-1.7,3.6c13.8,7,27.6,13.9,43.8,22.1
	c0-59.2,0-112.7,0-167.1c-18.6,0-35.1,0-49,0c-8,11.6-14.5,21-24.6,35.6c-10.5-15.2-17.5-25.4-24.6-35.6c-69.5,0-139.2,0-206.6,0
	c-8.3,11.7-15.2,21.6-25.4,36c-9.9-16.4-15.9-26.4-21.2-35.2c-17.4,0-33.8,0-50,0c0,107.9,0,213.6,0,321.9c57,0,111.8,0.1,166.6-0.1
	c5.1,0,10.2-1.3,16.6-2.2c0-12,0-22.8,0-34c-10.6-1.4-19.3-2.6-30.4-4.1c0-20.2,0-39.6,0-57.3c21.9-4.2,41.1-8,60.4-11.7
	c2.6-2.5,5.3-5,12.8-12.2C250.8,269.5,248.1,270,245.4,270.6z M370.5,490.8c65,0.1,122.7-56.3,123.6-120.8
	c1-65.6-56.7-123.5-123.3-123.5c-73.4,0-120.5,55.9-122.9,123.2C245.5,433.9,305.6,490.6,370.5,490.8z"/>
<path class="st1" d="M69,288.8c30.6,0,58.6,0,88.7,0c0,20,0,39,0,60.2c-28.9,0-57.6,0-88.7,0C69,330,69,311.2,69,288.8z"/>
<path class="st2" d="M69.3,125.4c30.5,0,58.3,0,88.3,0c0,19.5,0,38.2,0,58.9c-29.5,0-58,0-88.3,0C69.3,164.3,69.3,145.7,69.3,125.4z
	"/>
<path class="st3" d="M66.4,259.5c1-15.8,2.1-31.5,3.3-49.7c29.6,0,57.9,0,88.2,0c0,19.5,0,38.3,0,60.8c-27.8,0-54.1,0-80.3,0
	C73.9,267,70.2,263.2,66.4,259.5z"/>
<path class="st2" d="M397.4,184.6c-28.6,0-56.4,0-86.6,0c0-19.5,0-38.1,0-58.9c28.9,0,56.6,0,86.6,0
	C397.4,145.1,397.4,163.9,397.4,184.6z"/>
<path class="st2" d="M187.8,183.5c0-19.8,0-37.9,0-58c29.6,0,57.4,0,87.6,0c0,18.9,0,37,0,58C247.2,183.5,218.8,183.5,187.8,183.5z"
	/>
<path class="st4" d="M66.4,259.5c3.7,3.7,7.5,7.5,11.2,11.2C73.9,267,70.2,263.2,66.4,259.5z"/>
<path class="st5" d="M379.7,305.7c3.4,24.8,6.8,49.5,10.1,74.3c-4.7-3.6-9.4-7.2-14.1-10.8c-10.5,18.4-21.1,36.8-31.6,55.2
	c-1.7-1.6-3.4-3.3-5.2-4.9c8-38.2,16.1-76.4,24.1-114.7C368.6,305.1,374.1,305.4,379.7,305.7z"/>
<path class="st6" d="M379.7,305.7c-5.5-0.3-11-0.6-16.6-1c-1.9-14-3.8-28.1-6.2-46.6c12,1.6,18.7,2.5,28.1,3.8
	C382.9,278.7,381.3,292.2,379.7,305.7z"/>
<path class="st7" d="M359.9,483.7c-0.8-17.1-1.2-25.5-1.7-35.9c7.5-1.8,13.6-3.3,24.4-5.9c0,11.4,2.1,20.4-0.7,27.5
	C379.9,474.3,371.3,476.6,359.9,483.7z"/>
<path class="st8" d="M475,378.4c-9.6-0.5-19.2-1-28.8-1.6c-1-3.1-2-6.3-3-9.4c6.3-3.2,12.8-9.1,19-9c6.2,0.1,12.2,6.3,18.3,9.8
	C478.7,371.7,476.9,375.1,475,378.4z"/>
<path class="st9" d="M297.3,374.3c-8.9,1.2-17.9,4-26.4,3c-3.6-0.4-6.3-8.9-14.2-20.8c19.3,2.4,29.8,3.6,40.3,5
	C297.2,365.8,297.3,370.1,297.3,374.3z"/>
<path class="st10" d="M323.3,303.3c-4.5-6.9-8.9-13.8-17.6-27.4c12.4,1.8,21.4,0.7,23.5,3.9c3.7,5.8,3.2,14.2,4.5,21.5
	C330.2,302,326.8,302.7,323.3,303.3z"/>
<path class="st11" d="M408.4,301.2c1.7-9.3,3.4-18.6,5.1-27.8c4,0.6,8.1,1.2,12.1,1.9c-1.4,9.3-2.8,18.5-4.2,27.8
	C417,302.4,412.7,301.8,408.4,301.2z"/>
<path class="st12" d="M436.4,323.2c6.9-4.9,13.7-9.9,20.6-14.9c2,1.1,4.1,2.3,6.1,3.4c-0.9,5.6,0.1,14-3.2,16.3
	c-5.4,3.8-13.5,3.5-20.4,5C438.5,329.7,437.4,326.4,436.4,323.2z"/>
<path class="st13" d="M459.3,428c-7.8-4.5-15.6-9-23.4-13.6c1.9-3.5,3.8-7,5.7-10.5c8,3.9,16,7.7,24,11.6
	C463.4,419.7,461.4,423.9,459.3,428z"/>
<path class="st14" d="M337,443.5c-4.2,6.7-8.4,13.2-14.9,23.5c-4.9-7.6-11-14.6-10-15.9c4.8-6,11.6-10.5,17.6-15.6
	C332.1,438.3,334.6,440.9,337,443.5z"/>
<path class="st15" d="M283.5,309c7,4.8,14,9.5,21,14.3c-0.6,2.4-1.2,4.8-1.8,7.3c-6,0-13.5,2.2-17.5-0.6c-4.3-3-5.4-10.7-7.9-16.4
	C279.5,312.1,281.5,310.5,283.5,309z"/>
<path class="st16" d="M305.1,414.3c-7.6,4.5-15.2,9-22.7,13.5c-2-3.4-4.1-6.9-6.2-10.4c7.6-4.5,15.2-9,22.8-13.5
	C301,407.4,303.1,410.9,305.1,414.3z"/>
<path class="st17" d="M417,461.1c-4.1-6.1-8.2-12.1-12.3-18.2c2.9-2.2,5.8-4.4,8.7-6.5c4.7,5.9,9.3,11.9,14,17.8
	C424,456.4,420.5,458.8,417,461.1z"/>
</svg>
