<?xml version="1.0" encoding="utf-8"?>
<!-- Generator: Adobe Illustrator 26.0.2, SVG Export Plug-In . SVG Version: 6.00 Build 0)  -->
<svg version="1.1" id="Layer_1" xmlns="http://www.w3.org/2000/svg" xmlns:xlink="http://www.w3.org/1999/xlink" x="0px" y="0px"
	 viewBox="0 0 520 520" style="enable-background:new 0 0 520 520;" xml:space="preserve">
<style type="text/css">
	.st0{fill:#5DBB51;}
	.st1{fill:#5CBB50;}
	.st2{fill:#5CBB50;stroke:#5CBB50;stroke-width:2;stroke-miterlimit:10;}
	.st3{fill:#79C56B;}
</style>
<path class="st0" d="M458.3,188.8c5.4,13.3,9.4,18.8,9.6,24.6c2,48.6,7.2,97.7-13.1,143.9c-6.2,14.1-16.3,27-26.7,38.7
	c-32.1,36.2-78.5,63.8-66.7,124c-32.4,0-60.6,0-89.2,0c0-31.7-1.8-61.9,0.9-91.6c1.1-12.2,9.7-25.6,18.7-34.7
	c31.7-32.2,65-62.9,97.9-94c4.5-4.3,9.9-7.7,16.3-12.6c6.1,3.7,11.7,7.2,17.1,10.5C442,266.4,420.6,221.6,458.3,188.8z"/>
<path class="st1" d="M158.7,519.5c-0.5-8.8-1-15.9-1.4-23c-1.2-22.9-8-42.2-25.8-59.1C97,404.7,59.2,372.7,54.7,320.7
	c-3.1-36.2-3.5-72.8-3.5-109.1c0-5.8,8.2-11.7,13.5-18.7c37.1,28.7,10.2,71.3,28.4,101.5c9.3-1,18.3-1.9,24.6-2.6
	c38,34.9,75.4,66.1,108.5,101.3c12.9,13.7,19.7,35.8,23,55.1c3.9,22.4,0.9,46,0.9,71.2C219.4,519.5,190.5,519.5,158.7,519.5z"/>
<path class="st2" d="M164.7,77.5c26.2-20.8,52.5-41.3,78.5-62.3c12.9-10.5,23.3-9,35.9,1.5c18.7,15.5,39.1,29.1,63.7,47
	c1.1-20.8,2-36.1,2.8-50.6C358.3,2,404.9-4.9,415.4,4.3c5.6,4.8,8.8,14.9,9.1,22.6c1,32.7,0.4,65.4,0.4,93.1
	c9.2,25.3,42.6,25.1,43.9,54.4c-43.8-12.3-60.4-33.7-60.5-74.4c0-23.1-0.2-46.3-0.5-69.4c0-1.5-0.9-2.9-2-6.4c-13,0-26.7,0-41.5,0
	c-1.4,21.7-2.6,41.9-4.2,67.6c-42.1-14.2-64.8-48.8-99.6-67.2c-29.2,20-59,40.5-88.8,60.9C169.3,82.8,167,80.2,164.7,77.5z"/>
<path class="st3" d="M198.2,296.6c0-42.8,0-81.5,0-124c39.1,0,74.6-0.9,109.9,0.9c5.7,0.3,15.1,12.3,15.5,19.3
	c1.8,27.7,2,55.8-0.1,83.4c-0.5,7.2-11.3,19.1-17.9,19.5C271.7,297.7,237.6,296.6,198.2,296.6z M216.7,189.7c0,31.2,0,60.2,0,89.4
	c30.5,0,59.3,0,88.5,0c0-30.7,0-59,0-89.4C275.5,189.7,247.3,189.7,216.7,189.7z"/>
<path class="st2" d="M64,154.2c33.6-25.6,67.2-51.2,100.7-76.8c2.3,2.7,4.5,5.4,6.8,8.1c-33.6,25.5-67.2,51-100.8,76.5
	C68.5,159.5,66.2,156.8,64,154.2z"/>
<path class="st2" d="M70.7,162.1c-5.1,4.1-10.2,8.1-15.4,12.1c-1.8-2.2-3.6-4.4-5.4-6.6c4.7-4.4,9.4-8.9,14.1-13.4
	C66.2,156.8,68.5,159.5,70.7,162.1z"/>
</svg>
