<?xml version="1.0" encoding="utf-8"?>
<!-- Generator: Adobe Illustrator 26.0.2, SVG Export Plug-In . SVG Version: 6.00 Build 0)  -->
<svg version="1.1" id="Layer_1" xmlns="http://www.w3.org/2000/svg" xmlns:xlink="http://www.w3.org/1999/xlink" x="0px" y="0px"
	 viewBox="0 0 520 520" style="enable-background:new 0 0 520 520;" xml:space="preserve">
<style type="text/css">
	.st0{fill:#62BD56;}
	.st1{fill:#BDE0B3;}
</style>
<path class="st0" d="M91.1,131.6c-6.1,1.6-12.2,3.1-16.9,4.4C48.1,111.3,23.9,88.2,0,65.5C21.1,44.2,39.4,25.6,61.2,3.7
	c23.7,22.1,49,45.7,73.3,68.3c-1.8,10.9-3,18.4-3.8,23.1c39.2-15.8,78.8-31.7,124.9-50.3c5.2-8-11-31.2,11-44.3
	c20.3,13,5.2,34.6,14.9,52.1C389.4,70.4,452.4,136,469.3,247.8c8.7,0,16.5,0,24.3,0c7.2,0,14.3,0,24,0c0.8,6.8,1.5,12.4,2.4,19.9
	c-18.2,0.8-33.8,1.6-50,2.3c-18.8,108.6-78.5,176.3-189.8,192.8c-2.3,18.3-4.4,35.6-7,56.7c-28.9-15.2-13-38-22.3-55.6
	C141.5,447.9,76.3,384.1,59,270.5c-14.4-1-28.4-1.9-45.1-3c0.4-6.7,0.7-12.3,1.2-20.4c15.4,0,28.3,0,41.1,0
	c2.6-7.2,5.2-14.5,7.9-21.8c9.7-26.9,19.3-53.7,29-80.6c5.4-5.8,10.9-11.6,16.3-17.3c-1.4-1.7-2.7-3.5-4-5.2
	C100.6,125.3,95.9,128.5,91.1,131.6z M279,428.6c86.3-2.8,159.7-88.3,152.8-159c-4.1-0.3-8.3-0.9-12.5-0.8
	c-4.9,0.1-9.8,0.9-15.9,1.6c-12.1,71.2-53.7,114.7-124.4,131C279,410.7,279,418.9,279,428.6z M433.1,246.7
	c1.6-77-77.1-162.3-154-157.5c0,7.3,0,14.7,0,22.4c73.4,16.9,112,64.9,125.1,135.1C415.1,246.7,424.2,246.7,433.1,246.7z M93,269.9
	c1.1,87.1,91.9,168,162.1,156.5c0.3-3.4,1.1-7,0.8-10.5c-0.3-4.1-1.6-8.2-2.7-13.8c-79.7-8.6-123.8-55.5-138.9-132.2
	C107,269.9,100.8,269.9,93,269.9z M149.8,270.3c-1,52.5,54.5,103.1,104.9,96.9c0-11,0-22.2,0-34.3c-31.5-11-55-29.7-63.1-62.6
	C176.4,270.3,163,270.3,149.8,270.3z M367.6,246.8c5.3-42.3-37.2-91.1-88.4-101.1c0,14.1,0,27.9,0,43.1
	c31.2,7.6,47.5,29.2,55.9,59.2c7.5,0,13.9,0.1,20.3,0C359.6,247.8,363.7,247.2,367.6,246.8z M229.6,242.7
	c-8.7,26.5-3.6,41.8,16.3,52.2c18.6,9.8,39.6,4.7,51.4-12.5c10.9-15.8,9-38.1-4.5-51.6c-14.4-14.5-29.6-16.3-44.9-4.5
	c8.5,10,16.9,20,25.8,30.4C261.9,262.8,261.9,262.8,229.6,242.7z M334.3,270c-5.1,31.8-26.7,49.3-55.1,60.7c0,11.7,0,22.7,0,33.6
	c45.1,0.4,93.2-51.1,88.4-94.4C357.2,270,346.8,270,334.3,270z M255.7,105.5c-0.2-4-0.5-10.7-0.8-17.2
	C221.4,85.1,154,113.4,152,135.3c1.9,2.1,5.9,6.6,6.6,7.4C193.6,129.3,222.6,118.2,255.7,105.5z M254.6,138.4
	c-24.2,10.3-44.5,19-66.1,28.2c12,14.4,20.6,24.7,28.5,34.2c15.3-5.9,26.5-10.1,37.6-14.4C254.6,172,254.6,158.8,254.6,138.4z
	 M132.6,149.3c-23,26.6-38.6,58.2-40.5,97.4c8.6,0,15.3,0,18.5,0c12.5-29.9,23.9-57.4,35.9-86C142.8,157.7,137.5,153.3,132.6,149.3z
	 M168.4,182.7c-8.6,23.1-15.8,41.9-23.9,63.7c18.9,0,32.8,0,46.5,0c4.9-10.4,9.2-19.4,14-29.7c-6.2-6.6-11.9-12.9-18-18.9
	C182.9,194,178.3,190.7,168.4,182.7z M91.5,112.8c-12-31.1-41.8-53-59.2-41.7C53.3,82.7,61,109.9,91.5,112.8z M67.9,37.2
	c-2.6,2.7-5.2,5.4-7.8,8C74.7,59.8,89.3,74.4,103.9,89c2.8-2.9,5.7-5.9,8.5-8.7C97.6,65.9,82.7,51.5,67.9,37.2z"/>
<path class="st1" d="M64.1,225.4c-2.6,7.2-5.2,14.5-7.9,21.8C58.9,239.9,61.5,232.7,64.1,225.4z"/>
</svg>
