<?xml version="1.0" encoding="utf-8"?>
<!-- Generator: Adobe Illustrator 26.0.2, SVG Export Plug-In . SVG Version: 6.00 Build 0)  -->
<svg version="1.1" id="Layer_1" xmlns="http://www.w3.org/2000/svg" xmlns:xlink="http://www.w3.org/1999/xlink" x="0px" y="0px"
	 viewBox="0 0 520 520" style="enable-background:new 0 0 520 520;" xml:space="preserve">
<style type="text/css">
	.st0{fill:#55B94A;}
	.st1{fill:#5BBB4F;}
</style>
<g>
	<path class="st0" d="M257.1,334.5c3.7-25.1,8.2-55,13-87.3c2-4.6,5.2-11.9,9.4-21.5c3.8-2,10.1-5.2,17.9-9.3
		c1.2,5.2,2.2,9.7,3.8,16.4c4.7-3.5,8.4-6.2,11.5-8.5c0-10.9,0-20.4,0-32.4c8-4.2,17.1-9,28.2-14.8c-5.4-3.5-9.2-5.9-17.6-11.2
		c8.8-8.1,16.1-14.9,21-19.5c13.8,2.9,23.5,5,33.1,7c-0.2,0.3-0.4,0.5-0.5,0.8c16.5,6.8,33,13.7,53.2,22.1c1.1,1.5,4.9,6.4,8.9,11.6
		c-2.1,4.3-3.9,8.2-5.7,12.1c1.3-0.1,2.7-0.3,4-0.4c3.8,18.8,7.6,37.6,11.4,56.3c-1.5,0.1-2.9,0.2-4.4,0.3
		c-4.3,9.6-8.5,19.3-13.7,30.9c-2.5,1.2-6.9,3.3-15.2,7.3c3.5,10.5,6.9,21,10.4,31.5c2.4,0.2,4.9,0.4,7.3,0.6
		c5.1-6.7,10.3-13.4,15.4-20.1c5.7-7.4,10.3-16.4,17.6-21.9c12-9.1,25.3-6.6,28.7,7.2c8.9,35.6,29.9,68.7,24,109
		c-4.3-0.9-8.3-1.6-14-2.7c-2.5,7.5-5.1,15.3-7.7,23.1c-0.5-0.2-1.1-0.5-1.6-0.8c-8.3,20.2-16.6,40.4-26.3,64
		c-67.8,6.5-136.2,13.1-202.4,19.4c6.6-29,18.9-57,17.6-84.3C283.1,392.5,268.1,366.5,257.1,334.5z"/>
	<path class="st1" d="M172.5,215.2c-3.8-15.3-7.7-30.6-12.1-48.2c-3.6-1.5-9.1-3.9-15-6.5c-1.7-3.7-3.6-7.7-4.5-9.8
		c-42.7-10.3-83.5-20.1-125.5-30.2c-4.2-5-8.8-10.6-15.4-18.5c19.9-9,39.9-15.4,56.9-26.5C75,63.8,90.7,48.1,106.7,33.3
		c10.1-9.4,20.1-17.6,36.5-16.9c-6.7,19.1-30.4,28.4-27,52c30.8-11.9,47.7,4.9,61.3,26.7c14,1.1,26.9,3.2,39.5,2.7
		c6.6-0.3,13.2-5.1,19.4-8.4c8.3-4.5,15.7-11.7,24.5-14.1c18.1-5,36.9-7.7,56.6-11.5c1.2,5,2.7,11.3,4.3,18
		c18.2,12.2,33.3-3.9,52.2-5.7c1.1,9,2.1,17.5,3.3,27.6c2.6,3.6,6.2,8.5,11,15.1c-16.3,2.4-30.8,4.5-51.7,7.5
		c-8.3-1.5-23.1-4.1-40.1-7.1c-3.3,4.1-6.5,8-10.2,12.5c-10.2,1.6-21.3,3.4-33.3,5.3c-2.4,4.6-4.9,9.5-6.8,13.4
		c-14.1,1.7-27.4,3.4-41,5.1c-8.3,19.9-16.9,40.3-25.5,60.6C177.2,215.6,174.8,215.4,172.5,215.2z"/>
</g>
</svg>
