<?xml version="1.0" encoding="utf-8"?>
<!-- Generator: Adobe Illustrator 26.0.2, SVG Export Plug-In . SVG Version: 6.00 Build 0)  -->
<svg version="1.1" id="Layer_1" xmlns="http://www.w3.org/2000/svg" xmlns:xlink="http://www.w3.org/1999/xlink" x="0px" y="0px"
	 viewBox="0 0 520 520" style="enable-background:new 0 0 520 520;" xml:space="preserve">
<style type="text/css">
	.st0{fill:#57B94C;}
	.st1{fill:#77C46A;}
	.st2{fill:#5ABA4E;}
	.st3{fill:#70C263;}
	.st4{fill:#70C264;}
	.st5{fill:#93CF86;}
</style>
<g>
	<path class="st0" d="M275.8,142.6c19.7,3.9,39.4,7.8,59.1,11.6c7.1,7.5,14.2,15,19.9,21c8.7-2.5,13.7-5.6,18-4.8
		c14.5,2.7,14.4,3.2,18.2-12.1l-0.1,0.1c12.7-5.7,25.4-11.4,38-17.1c-1.2,4.4-2.5,8.8-3.8,13.2c-4.8,4.2-9.6,8.4-10.2,8.9
		c10.6,27,19.6,50,28.5,73c1.8,3.8,3.6,7.5,5.4,11.3c3.2,11.3,6.5,22.7,9.7,34c0.9,2.9,1.8,5.8,2.7,8.7c2.1,2.8,4.2,5.6,6.3,8.4
		c0,4.2,0,8.4,0,12.7c-5,2-9.9,4-15.2,6.2c-5.5-7.7-9.9-13.9-14.3-20.2c-15.1,0.6-24.9,6.3-26.4,22c-2.6-1.3-5.2-2.6-7.8-3.9
		c-22.5-26.9-43.7-55.1-68-80.3c-13-13.4-31.3-21.8-47.2-32.4c3.1-3.2,6.1-6.5,9.1-9.7c-11,1.4-22,2.8-32.2,4.1
		c-23.6,33.3-43.1,38.5-64,16c5.1-12.3,10.5-25.3,15.9-38.3c0.7-2.7,1.5-5.4,2.2-8.1c4.9-5.4,9.8-10.8,12.8-14.1
		C248.5,149,262.2,145.8,275.8,142.6z"/>
	<path class="st1" d="M219.9,166.8c-0.7,2.7-1.5,5.4-2.2,8.1c-17.9-0.1-35.8-0.2-53.7-0.3c-2.8,0.3-5.7,0.6-8.6,0.9
		c-14.6,0-29.2,0-44.1,0c-8.6,31.5-17.6,62.5-25,93.8c-1.3,5.7,3.5,12.8,5.5,19.3c-0.8,4.3-1.5,8.7-2.3,13c-4.6-1.6-9.2-3.1-14.6-5
		c-6.5,7.2-13,14.4-21,23.2C36,310.3,18.9,301.1,0,291c20.2-57.8,39.8-113.5,60.6-172.8c16.8,6.7,32,12.7,41.4,16.5
		c8.8,12.5,14,19.9,19.2,27.3c5,1.1,9.9,2.2,14.9,3.2c12.9,0,25.8,0,38.7,0C189.8,165.7,204.8,166.2,219.9,166.8z M93.9,150
		c-8.7-3.3-16-6.1-23.8-9.1c-17.2,49.1-33.5,95.4-49.8,142c11.9,6.6,20.8,11.5,31.1,17.2C78,252.9,91.2,204.6,93.9,150z"/>
	<path class="st2" d="M89.4,301.6c0.8-4.3,1.5-8.7,2.3-13c9.8,6.5,19.6,12.9,29.4,19.3c3.4,2.3,6.8,4.6,10.3,6.9
		c1.2,0,2,0.5,2.6,1.5c0.9,2.2,1.8,4.4,3.6,8.7c2.7-3.5,4-5.3,5.5-7.1c4.2-7.9,8.5-15.8,12.7-23.6c3.8,1.6,7.6,3.2,11.4,4.8
		c4.6,7,9.2,14,13.8,21c0.2,3.5,0.4,7,0.6,10.5c2.8-1,5.6-2,8.4-3.1c16.1-4.2,23.4,2.9,23.8,18.6c-0.5,3.4-0.9,6.8-1.4,10.2
		c1.1,0.4,2.1,0.8,3.2,1.2c1.3-1.8,2.6-3.6,3.9-5.4c4.7,1.5,9.3,3,14,4.6c1.4,3.5,2.9,7,4.3,10.5c0.1,2,0.3,4,0.4,6
		c2.7,3.4,5.3,6.9,8,10.3c1.2-0.2,2.4,0.1,3.3,1c-2.8,3.8-5.5,7.6-8.2,11.4c-3,0-6,0.1-9,0.1c-4.3,0.7-8.7,1.5-13,2.2
		c-4.3-4.4-8.7-8.8-13-13.3c-8.2-4.7-16.5-9.3-24.7-14c-0.9-0.7-1.3-1.6-1.1-2.8c-3.4-15.4-12.5-16.8-24.9-10
		c-4.5-5.3-9-10.6-13.4-15.9c-2.2-2.6-4.6-7.5-6.7-7.4c-12.5,0.4-25,2-37.5,3.2c-2.3-1.5-4.7-3-7-4.5c-0.1-5-0.2-10-0.3-15
		c-0.1-1.2,0.4-2.2,1.5-2.8c2.2-0.9,4.5-1.8,8.9-3.6c-3.5-2.7-5.3-4.1-7.1-5.5C92.3,305,90.9,303.3,89.4,301.6z"/>
	<path class="st3" d="M467.5,311.5c0-4.2,0-8.4,0-12.7c9.8-6.7,19.6-13.4,30.8-21c-20-41.5-39.8-82.5-59.5-123.3
		c-5.2,0-9.4,0-13.7,0c1.2-4.4,2.5-8.8,3.8-13.2c4.7-2,9.4-4,15.5-6.5c5.9,13.9,9.9,25.8,15.9,36.7c7.1,13.1,15.9,25.4,24,38
		c11.2,24.3,22.4,48.6,35.7,77.1C501.1,295.6,484.3,303.6,467.5,311.5z"/>
	<path class="st4" d="M403.8,315.6c2.6,1.3,5.2,2.5,7.8,3.9c-1.2,18.1-1.8,18.6-27.4,24c-7.1,10.6-13.6,20.5-20.2,30.3
		c-0.9-1.1-1.9-2.2-2.8-3.3c-11.2,6.2-22.4,12.5-33.6,18.7c-0.6-0.6-1.2-1.1-1.8-1.7c0-3.5,0.1-7.1,0.2-10.6c0-7.5,0-14.9,0-22.4
		c13.9,0.9,25.2,1.7,39.1,2.6c-1.5-13.6-2.5-22.9-3.6-33.2C378.3,329.5,393.9,335.1,403.8,315.6z"/>
	<path class="st5" d="M219.9,166.8c-15-0.6-30.1-1.2-45.1-1.7c14.2-2.8,28.4-5.6,45.9-9c10.9-22.7,33.7-15.6,55.2-13.6
		c-13.7,3.2-27.3,6.4-43.1,10.1C229.7,156,224.8,161.4,219.9,166.8z"/>
	<path class="st4" d="M327.6,389.3c-14.7,4.2-29.4,8.4-44.1,12.5c-0.3-4.9-0.7-9.7-1-14.6l0.3,0.3c14.4,0,28.8,0,43.2,0
		C326.4,388.1,327,388.7,327.6,389.3z"/>
	<path class="st1" d="M97.8,338.1c12.5-1.2,25-2.8,37.5-3.2c2.2-0.1,4.5,4.8,6.7,7.4C127.3,340.9,112.5,339.5,97.8,338.1z"/>
	<path class="st4" d="M241.2,395.9c2.8-3.8,5.5-7.6,8.2-11.4c4.3,1.6,8.6,3.1,12.8,4.7c0.1,4.2,0.3,8.4,0.4,12.7
		C255.4,399.8,248.3,397.8,241.2,395.9z"/>
	<path class="st2" d="M262.6,401.8c-0.1-4.2-0.3-8.4-0.4-12.7c6.7-0.6,13.5-1.3,20.2-1.9c0.3,4.9,0.7,9.7,1,14.6
		C276.5,401.8,269.5,401.8,262.6,401.8z"/>
	<path class="st1" d="M155.5,358.2c12.4-6.7,21.4-5.3,24.9,10C172,364.9,163.7,361.5,155.5,358.2z"/>
	<path class="st1" d="M181.4,371c8.2,4.7,16.5,9.3,24.7,14C197.9,380.4,189.7,375.7,181.4,371z"/>
	<path class="st5" d="M136,165.1c-5-1.1-9.9-2.2-14.9-3.2C126.1,163,131.1,164.1,136,165.1z"/>
	<path class="st1" d="M90.5,318.6c0.1,5,0.2,10,0.3,15C90.7,328.6,90.7,323.6,90.5,318.6z"/>
	<path class="st4" d="M219.1,398.3c4.3-0.7,8.7-1.5,13-2.2C227.8,396.8,223.4,397.5,219.1,398.3z"/>
	<path class="st1" d="M93.7,306.8c1.8,1.4,3.6,2.8,7.1,5.5c-4.4,1.8-6.6,2.7-8.9,3.6C92.6,312.8,93.2,309.8,93.7,306.8z"/>
	<path class="st3" d="M443.6,236.3c1.8,3.8,3.6,7.5,5.4,11.3C447.1,243.9,445.3,240.1,443.6,236.3z"/>
	<path class="st3" d="M458.6,281.7c0.9,2.9,1.8,5.8,2.7,8.7C460.3,287.5,459.4,284.6,458.6,281.7z"/>
	<path class="st5" d="M163.9,174.5c-2.8,0.3-5.7,0.6-8.6,0.9C158.1,175.2,161,174.9,163.9,174.5z"/>
	<path class="st1" d="M180.9,320c3,2.5,6,5,9,7.4c-2.8,1-5.6,2-8.4,3.1C181.3,327,181.1,323.5,180.9,320z"/>
	<path class="st1" d="M213.7,346c1.9,2,3.7,4,5.6,6c-1.3,1.8-2.6,3.6-3.9,5.4c-1.1-0.4-2.1-0.8-3.2-1.2
		C212.8,352.9,213.2,349.5,213.7,346z"/>
	<path class="st1" d="M121.1,308c3.4,2.3,6.8,4.6,10.3,6.9C127.8,312.6,124.4,310.2,121.1,308z"/>
	<path class="st1" d="M133.9,316.4c3,0.5,6,1,9,1.5c-1.4,1.8-2.8,3.7-5.5,7.1C135.7,320.8,134.8,318.6,133.9,316.4z"/>
	<path class="st1" d="M233.3,356.6c1.4,3.5,2.9,7,4.3,10.5C236.2,363.6,234.8,360.1,233.3,356.6z"/>
	<path class="st1" d="M238,373.1c2.7,3.4,5.3,6.9,8,10.3C243.4,380,240.7,376.6,238,373.1z"/>
	<path class="st2" d="M282.6,387.6c0.3-2.6,0.7-5.3,1.1-7.9c8.4,0.3,16.8,0.7,25.3,1c5.6-1.2,11.3-2.5,17-3.8
		c0,3.5-0.1,7.1-0.2,10.6C311.4,387.6,297,387.6,282.6,387.6z"/>
	<path class="st4" d="M309,380.7c-8.4-0.3-16.8-0.7-25.3-1c-2.8-3.1-5.5-6.2-8.3-9.2c0.8-1.1,1.6-2.2,2.4-3.3
		C288.3,371.7,298.6,376.2,309,380.7z"/>
</g>
</svg>
