<?xml version="1.0" encoding="UTF-8"?>
<svg id="_ар_1" data-name="Шар 1" xmlns="http://www.w3.org/2000/svg" viewBox="0 0 272.51 267.49">
  <defs>
    <style>
      .cls-1 {
        fill-rule: evenodd;
      }

      .cls-1, .cls-2 {
        fill: #081C4A;
      }
    </style>
  </defs>
  <path class="cls-2" d="M136.32,267.12c-36.38,0-70.57-13.89-96.3-39.12C14.31,202.78,.14,169.24,.14,133.56S14.31,64.35,40.03,39.12C65.75,13.89,99.95,0,136.32,0s70.57,13.89,96.3,39.12c25.72,25.23,39.89,58.77,39.89,94.44s-14.17,69.22-39.89,94.44c-25.72,25.23-59.92,39.12-96.3,39.12Zm0-249.89c-65.4,0-118.61,52.18-118.61,116.33s53.21,116.33,118.61,116.33,118.61-52.18,118.61-116.33S201.73,17.23,136.32,17.23Z"/>
  <path class="cls-1" d="M163.64,76.4c5.45-.18,10.9-.04,16.36-.05h2.25v-27.8c-2.91-.29-5.96-.7-9.01-.84-5.59-.24-11.19-.52-16.78-.39-8.54,.18-16.63,2.22-23.69,7.18-8.1,5.72-12.55,13.74-14.24,23.21-.7,3.91-.88,7.96-.99,11.93-.16,6.24-.03,12.48-.02,18.72v2.34h-27.13v31.06h26.97v78.07h32.96v-77.94h26.88c1.38-10.33,2.72-20.55,4.14-31.2-2.16,0-4.1,0-6.04,0-7.64,.03-25.19,0-25.19,0,0,0,.08-15.39,.26-22.07,.26-9.15,5.8-11.94,13.27-12.21Z"/>
</svg>
