<?xml version="1.0" encoding="UTF-8"?>
<svg id="_ар_1" data-name="Шар 1" xmlns="http://www.w3.org/2000/svg" viewBox="0 0 272.51 267.49">
  <defs>
    <style>
      .cls-1 {
        fill: #081C4A;
      }
    </style>
  </defs>
  <path class="cls-1" d="M136.32,267.12c-36.38,0-70.57-13.89-96.3-39.12C14.31,202.78,.14,169.24,.14,133.56S14.31,64.35,40.03,39.12C65.75,13.89,99.95,0,136.32,0s70.57,13.89,96.3,39.12c25.72,25.23,39.89,58.77,39.89,94.44s-14.17,69.22-39.89,94.44c-25.72,25.23-59.92,39.12-96.3,39.12Zm0-249.89c-65.4,0-118.61,52.18-118.61,116.33s53.21,116.33,118.61,116.33,118.61-52.18,118.61-116.33S201.73,17.23,136.32,17.23Z"/>
  <path class="cls-1" d="M218.35,92.84c-1.12-10.76-5.33-20.28-13.48-27.91-8.58-8.03-19.07-11.58-30.57-12.18-19.6-1.05-66.14-1.71-82.48,.9-18.67,2.98-30.91,13.67-36.08,31.76-3.97,13.91-3.18,78.05-.86,91.8,3.16,18.81,14.49,30.87,33.5,35.67,13.15,3.33,77.79,2.9,92.3,.6,19.19-3.04,31.54-14.1,36.53-32.7,3.81-14.28,2.48-75.06,1.14-87.94Zm-15.35,81.72c-2.23,14.29-11.9,23.13-26.54,24.7-13.45,1.45-73.52,2.24-85.99-1.18-11.93-3.27-18.76-11.32-20.74-23.1-1.89-11.25-2.36-67.48-.02-82.53,2.2-14.16,11.86-23,26.42-24.59,14.77-1.62,67.93-1.8,82.08,.32,14.53,2.19,23.54,11.69,25.14,26.07,1.49,13.42,1.91,65.88-.34,80.3Zm-66.66-82.91c-23.61-.01-42.77,18.75-42.78,41.91-.01,23.16,19.12,41.94,42.73,41.96,23.61,.01,42.77-18.75,42.78-41.91,.01-23.16-19.12-41.94-42.73-41.96Zm-.29,69.02c-15.27-.13-27.54-12.38-27.4-27.36,.14-14.98,12.63-27.01,27.9-26.87,15.27,.13,27.54,12.38,27.4,27.36-.14,14.98-12.63,27.01-27.9,26.87Zm54.73-70.61c-.01,5.42-4.51,9.81-10.04,9.79-5.53-.01-10-4.42-9.99-9.84,.01-5.42,4.51-9.81,10.04-9.79,5.53,.01,10,4.42,9.99,9.84Z"/>
</svg>
