<?xml version="1.0" encoding="UTF-8"?>
<svg id="_ар_1" data-name="Шар 1" xmlns="http://www.w3.org/2000/svg" viewBox="0 0 272.51 267.49">
  <defs>
    <style>
      .cls-1 {
        fill: #081C4A;
      }
    </style>
  </defs>
  <path class="cls-1" d="M136.32,267.12c-36.38,0-70.57-13.89-96.3-39.12C14.31,202.78,.14,169.24,.14,133.56S14.31,64.35,40.03,39.12C65.75,13.89,99.95,0,136.32,0s70.57,13.89,96.3,39.12c25.72,25.23,39.89,58.77,39.89,94.44s-14.17,69.22-39.89,94.44c-25.72,25.23-59.92,39.12-96.3,39.12Zm0-249.89c-65.4,0-118.61,52.18-118.61,116.33s53.21,116.33,118.61,116.33,118.61-52.18,118.61-116.33S201.73,17.23,136.32,17.23Z"/>
  <g>
    <polygon class="cls-1" points="106.47 136.13 58.37 178.72 58.37 88.83 106.47 136.13"/>
    <polygon class="cls-1" points="214.27 88.83 214.27 178.72 166.18 136.13 214.27 88.83"/>
    <polygon class="cls-1" points="214.27 187.24 58.37 187.24 111.03 140.61 115.59 145.09 136.32 165.49 157.06 145.09 161.62 140.61 214.27 187.24"/>
    <polygon class="cls-1" points="214.27 79.88 161.39 131.88 156.83 136.36 136.32 156.53 115.82 136.36 111.26 131.88 58.37 79.88 214.27 79.88"/>
  </g>
</svg>
