<?xml version="1.0" encoding="UTF-8"?>
<svg id="_ар_1" data-name="Шар 1" xmlns="http://www.w3.org/2000/svg" viewBox="0 0 272.51 267.49">
  <defs>
    <style>
      .cls-1 {
        fill-rule: evenodd;
      }

      .cls-1, .cls-2 {
        fill: #081C4A;
      }
    </style>
  </defs>
  <path class="cls-2" d="M136.32,267.12c-36.38,0-70.57-13.89-96.3-39.12C14.31,202.78,.14,169.24,.14,133.56S14.31,64.35,40.03,39.12C65.75,13.89,99.95,0,136.32,0s70.57,13.89,96.3,39.12c25.72,25.23,39.89,58.77,39.89,94.44s-14.17,69.22-39.89,94.44c-25.72,25.23-59.92,39.12-96.3,39.12Zm0-249.89c-65.4,0-118.61,52.18-118.61,116.33s53.21,116.33,118.61,116.33,118.61-52.18,118.61-116.33S201.73,17.23,136.32,17.23Z"/>
  <path class="cls-1" d="M154.03,168.04c-1.1,1.31-2.3,2.15-3.65,2.49-1.73,.44-3.33-.02-4.42-.45-16.43-6.47-28.44-18.26-28.44-18.26,0,0-12-11.78-18.6-27.88-.44-1.07-.91-2.64-.46-4.33,.35-1.33,1.21-2.5,2.54-3.58,14.76-12.09,19.1-13.35,15.99-19.61-13.94-28.05-14.05-30.82-17.26-32.07-8.51-3.32-18.14,2.7-19.52,3.56-13.71,8.57-16.63,26.53-16.34,32.77,.87,19.01,11.32,45.27,34.16,69.94,24.76,24.54,52.62,36.32,71.66,33.84,2.43-.32,25.17-2.51,33.41-16.03,.94-1.54,6.99-10.87,3.63-19.15-1.27-3.14-3.37-4.82-32.7-16.92-1.49-.61-4.47-2.76-20,15.68Z"/>
</svg>
