<?xml version="1.0" encoding="UTF-8"?>
<svg id="_ар_1" data-name="Шар 1" xmlns="http://www.w3.org/2000/svg" viewBox="0 0 272.51 267.49">
  <defs>
    <style>
      .cls-1 {
        fill-rule: evenodd;
      }

      .cls-1, .cls-2 {
        fill: #010101;
      }
    </style>
  </defs>
  <path class="cls-2" d="M136.32,267.12c-36.37,0-70.56-13.89-96.28-39.1C14.32,202.8,.15,169.26,.14,133.58c0-35.68,14.15-69.22,39.87-94.45C65.73,13.9,99.92,0,136.3,0h.02c36.37,0,70.56,13.89,96.28,39.1,25.73,25.22,39.9,58.76,39.9,94.43h0c0,35.68-14.15,69.22-39.87,94.45-25.72,25.23-59.91,39.13-96.29,39.14h-.02Zm0-249.89h-.02c-31.68,0-61.47,12.11-83.86,34.09S17.71,102.51,17.71,133.58c0,31.07,12.35,60.28,34.76,82.25,22.4,21.96,52.18,34.06,83.86,34.06h.02c31.68,0,61.47-12.11,83.86-34.09,22.4-21.97,34.73-51.19,34.73-82.26-.01-64.14-53.22-116.31-118.61-116.31Z"/>
  <path class="cls-1" d="M101.79,173.16c-18.75-.64-30.46-13.83-33.57-24.55,5.22,.97,10.35,.77,15.46-.46,.13-.03,.26-.12,.52-.23-10.15-2.31-17.99-7.64-23.43-16.23-3.61-5.71-5.34-11.95-5.29-18.81,5.07,2.66,10.37,4.14,16.05,4.29-7.64-5.39-12.75-12.44-14.85-21.46-2.08-9-.74-17.55,3.87-25.63,19.54,22.56,44.26,34.93,74.41,36.96-.21-1.4-.43-2.63-.58-3.87-1-8.32,.68-16.09,5.27-23.13,5.73-8.83,13.93-14.31,24.46-16,12.13-1.95,22.72,1.44,31.58,9.85,.6,.56,1.09,.75,1.92,.56,7.42-1.58,14.4-4.2,20.98-7.92,.15-.09,.32-.18,.48-.24,.03-.03,.09-.02,.24-.02-2.85,8.23-8.05,14.57-15.44,19.25,6.99-.75,13.65-2.57,20.09-5.3,.06,.06,.1,.12,.15,.16-1.38,1.77-2.71,3.58-4.14,5.3-3.83,4.63-8.22,8.7-13.11,12.22-.41,.3-.61,.59-.59,1.11,.2,5.25,0,10.5-.67,15.71-1.39,10.99-4.51,21.48-9.29,31.5-4.94,10.34-11.38,19.69-19.49,27.89-13.74,13.93-30.29,22.93-49.57,27.1-6.61,1.42-13.32,2.16-20.09,2.35-20.8,.6-40.03-4.47-57.73-15.18-.22-.13-.45-.29-.85-.54,12.59,1.33,24.56-.26,36.08-4.89,6.12-2.46,11.78-5.68,17.15-9.81Z"/>
</svg>