<?xml version="1.0" encoding="UTF-8"?>
<svg id="_ар_1" data-name="Шар 1" xmlns="http://www.w3.org/2000/svg" viewBox="0 0 272.51 267.49">
  <defs>
    <style>
      .cls-1 {
        fill: #081C4A;
      }
    </style>
  </defs>
  <path class="cls-1" d="M136.32,267.12c-36.38,0-70.57-13.89-96.3-39.12C14.31,202.78,.14,169.24,.14,133.56S14.31,64.35,40.03,39.12C65.75,13.89,99.95,0,136.32,0s70.57,13.89,96.3,39.12c25.72,25.23,39.89,58.77,39.89,94.44s-14.17,69.22-39.89,94.44c-25.72,25.23-59.92,39.12-96.3,39.12Zm0-249.89c-65.4,0-118.61,52.18-118.61,116.33s53.21,116.33,118.61,116.33,118.61-52.18,118.61-116.33S201.73,17.23,136.32,17.23Z"/>
  <g>
    <path class="cls-1" d="M136.23,214.7h-.15c-12.92-.02-25.29-2.89-36.77-8.52-10.94-5.37-20.71-13.22-28.26-22.7-5.55-6.97-9.86-14.71-12.83-23.02-3.07-8.59-4.63-17.61-4.63-26.8s1.56-18.21,4.63-26.8c2.97-8.31,7.28-16.05,12.83-23.02,15.2-19.1,38.05-30.47,62.69-31.18,1.5-.05,3.15-.05,4.74,0,24.74,.65,47.67,12.02,62.93,31.19,5.55,6.97,9.86,14.71,12.83,23.02,3.07,8.59,4.63,17.61,4.63,26.8s-1.56,18.21-4.63,26.8c-2.97,8.31-7.28,16.05-12.83,23.02-7.56,9.5-17.36,17.37-28.32,22.73-11.51,5.63-23.91,8.49-36.85,8.49Zm0-154.58c-.77,0-1.53,.01-2.26,.03-22.36,.65-43.1,10.96-56.89,28.3-10.36,13.02-15.84,28.65-15.84,45.21s5.48,32.19,15.84,45.21c14.29,17.96,35.8,28.29,59,28.33h.15c23.26,0,44.82-10.33,59.15-28.33,10.36-13.02,15.84-28.65,15.84-45.21s-5.48-32.19-15.84-45.21c-13.85-17.4-34.66-27.72-57.1-28.31-.68-.02-1.36-.03-2.04-.03Z"/>
    <path class="cls-1" d="M136.34,214.7h-.19c-4.93-.03-12.26-2.45-19.18-13.85-4.86-8-8.75-19.18-11.26-32.32-2.08-10.91-3.14-22.64-3.15-34.87v-.1c0-12.19,1.05-23.9,3.11-34.78,2.33-12.3,5.9-22.97,10.33-30.85,4.95-8.82,10.74-13.94,17.2-15.21,1.98-.39,4.02-.39,6.01-.01,6.48,1.25,12.28,6.36,17.24,15.2,4.43,7.89,8.01,18.58,10.34,30.9,2.06,10.87,3.1,22.56,3.1,34.75v.09c0,8.47-.52,16.81-1.55,24.79-.44,3.43-.97,6.81-1.59,10.05-2.51,13.14-6.39,24.32-11.24,32.32-6.91,11.4-14.23,13.84-19.16,13.88h-.02Zm-.16-7.5h.13c5.36-.05,9.82-5.58,12.63-10.21,4.4-7.25,7.96-17.58,10.3-29.87,.59-3.1,1.1-6.33,1.52-9.61,.98-7.67,1.48-15.69,1.49-23.85v-.09c0-11.73-1-22.96-2.97-33.38-2.19-11.55-5.48-21.46-9.52-28.65-3.71-6.61-7.98-10.68-12.01-11.46-1.01-.2-2.03-.19-3.03,0-4.03,.79-8.29,4.86-12,11.47-4.03,7.19-7.32,17.08-9.51,28.6-1.98,10.44-2.98,21.68-2.98,33.41v.09c0,11.77,1.02,23.04,3.01,33.49,2.35,12.29,5.91,22.62,10.31,29.86,2.81,4.63,7.28,10.15,12.64,10.18Z"/>
    <g>
      <path class="cls-1" d="M136.23,105.8c-9.45,0-18.75-.89-27.65-2.66-13.7-2.71-26.34-7.49-36.56-13.83l-3.57-2.21,2.6-3.27c15.14-19.02,37.86-30.38,62.38-31.18,1.76-.31,3.57-.31,5.34,0,24.62,.73,47.44,12.09,62.63,31.18l2.6,3.27-3.57,2.21c-10.27,6.37-22.98,11.17-36.75,13.87-8.85,1.74-18.09,2.62-27.46,2.62Zm-56.37-20.64c8.72,4.78,19.08,8.42,30.23,10.63,8.4,1.66,17.2,2.51,26.14,2.51s17.6-.83,25.96-2.47c11.22-2.2,21.64-5.86,30.41-10.66-13.77-15.4-33.33-24.46-54.32-25.01h-.32l-.31-.07c-1.01-.2-2.03-.19-3.03,0l-.32,.06h-.32c-20.9,.62-40.39,9.67-54.1,25.02Z"/>
      <path class="cls-1" d="M136.23,214.7h-.15c-12.92-.02-25.29-2.89-36.77-8.52-10.94-5.37-20.71-13.22-28.26-22.7l-2.6-3.26,3.57-2.21c10.22-6.34,22.88-11.13,36.6-13.84,8.89-1.76,18.18-2.65,27.61-2.65s18.59,.88,27.42,2.61c13.79,2.7,26.51,7.5,36.78,13.87l3.57,2.21-2.6,3.27c-7.56,9.5-17.36,17.37-28.32,22.73-11.51,5.63-23.91,8.49-36.85,8.49Zm-56.37-32.54c14.22,15.93,34.48,25,56.22,25.04h.15c21.8,0,42.11-9.07,56.37-25.04-8.78-4.81-19.21-8.47-30.45-10.67-8.34-1.64-17.06-2.47-25.92-2.47s-17.7,.84-26.1,2.5c-11.17,2.21-21.54,5.86-30.27,10.64Z"/>
    </g>
    <rect class="cls-1" x="57.42" y="129.9" width="157.62" height="7.5"/>
  </g>
</svg>
