<?xml version="1.0" encoding="UTF-8"?>
<svg id="_ар_1" data-name="Шар 1" xmlns="http://www.w3.org/2000/svg" viewBox="0 0 272.51 267.49">
  <defs>
    <style>
      .cls-1 {
        fill-rule: evenodd;
      }

      .cls-1, .cls-2 {
        fill: #081C4A;
      }
    </style>
  </defs>
  <path class="cls-2" d="M136.32,267.12c-36.38,0-70.57-13.89-96.3-39.12C14.31,202.78,.14,169.24,.14,133.56S14.31,64.35,40.03,39.12C65.75,13.89,99.95,0,136.32,0s70.57,13.89,96.3,39.12c25.72,25.23,39.89,58.77,39.89,94.44s-14.17,69.22-39.89,94.44c-25.72,25.23-59.92,39.12-96.3,39.12Zm0-249.89c-65.4,0-118.61,52.18-118.61,116.33s53.21,116.33,118.61,116.33,118.61-52.18,118.61-116.33S201.73,17.23,136.32,17.23Z"/>
  <path class="cls-1" d="M68.7,188.67c-6.43-2.07-10.76-6.2-13.08-12.45-5.66-15.27-7.33-79.13,3.56-91.71,3.73-4.3,8.52-6.81,14.23-7.41,29.37-3.1,120.14-2.66,130.6,1.04,6.13,2.16,10.48,6.1,12.84,12.11,6.19,15.78,6.41,73.2-.82,88.4-1.96,4.12-5.15,7.03-9.21,9.12-10.95,5.64-123.72,5.57-138.13,.91Zm46.65-29.93c17.66-8.98,35.16-17.89,52.89-26.9-17.76-9.08-35.26-18.04-52.89-27.07v53.97Z"/>
</svg>
